<?xml version="1.0" encoding="UTF-8"?>
<svg id="Capa_1" data-name="Capa 1" xmlns="http://www.w3.org/2000/svg" viewBox="0 0 1920 847">
  <defs>
    <style>
      .cls-1, .cls-2 {
        fill: #fff;
      }

      .cls-3 {
        opacity: .11;
      }

      .cls-2 {
        stroke: #000;
        stroke-miterlimit: 10;
        stroke-width: 8px;
      }

      .cls-4 {
        fill: #4338ca;
      }
    </style>
  </defs>
  <rect class="cls-4" y=".21" width="1920" height="847" rx="221.09" ry="221.09"/>
  <g class="cls-3">
    <g>
      <line class="cls-2" x1="784.11" y1="308.36" x2="1384.13" y2="308.36"/>
      <line class="cls-2" x1="798.01" y1="326.16" x2="1384.13" y2="323.36"/>
      <path class="cls-1" d="M1366.24,295.81l10.59-10,29.71,30.89-30.4,28.57-9.8-10.94,20.1-18.23-20.2-20.3Z"/>
    </g>
    <g>
      <line class="cls-2" x1="798.01" y1="669.89" x2="1224.01" y2="669.89"/>
      <line class="cls-2" x1="806.01" y1="686.89" x2="1224.01" y2="684.89"/>
      <path class="cls-1" d="M1206.13,657.34l10.59-10,29.71,30.89-30.4,28.57-9.8-10.94,20.1-18.23-20.2-20.3Z"/>
    </g>
    <g>
      <line class="cls-2" x1="702.5" y1="58.71" x2="1128.5" y2="58.71"/>
      <line class="cls-2" x1="710.5" y1="75.71" x2="1128.5" y2="73.71"/>
      <path class="cls-1" d="M1110.61,46.17l10.59-10,29.71,30.89-30.4,28.57-9.8-10.94,20.1-18.23-20.2-20.3Z"/>
    </g>
    <g>
      <line class="cls-2" x1="756.36" y1="370.46" x2="1851.86" y2="370.46"/>
      <line class="cls-2" x1="791.79" y1="384.18" x2="1851.86" y2="385.46"/>
      <path class="cls-1" d="M1833.97,357.91l10.59-10,29.71,30.89-30.4,28.57-9.8-10.94,20.1-18.23-20.2-20.3Z"/>
    </g>
    <g>
      <line class="cls-2" x1="809.67" y1="243.1" x2="1235.67" y2="243.1"/>
      <line class="cls-2" x1="817.67" y1="260.1" x2="1235.67" y2="258.1"/>
      <path class="cls-1" d="M1217.78,230.56l10.59-10,29.71,30.89-30.4,28.57-9.8-10.94,20.1-18.23-20.2-20.3Z"/>
    </g>
    <g>
      <line class="cls-2" x1="497.77" y1="202.8" x2="923.77" y2="202.8"/>
      <line class="cls-2" x1="505.77" y1="219.8" x2="923.77" y2="217.8"/>
      <path class="cls-1" d="M905.88,190.26l10.59-10,29.71,30.89-30.4,28.57-9.8-10.94,20.1-18.23-20.2-20.3Z"/>
    </g>
    <g>
      <line class="cls-2" x1="791.67" y1="133.24" x2="1475.43" y2="133.24"/>
      <line class="cls-2" x1="804.51" y1="160.53" x2="1475.43" y2="157.32"/>
      <path class="cls-1" d="M1446.72,113.11l17-16.05,47.68,49.58-48.79,45.86-15.73-17.55,32.26-29.26-32.42-32.58Z"/>
    </g>
    <g>
      <line class="cls-2" x1="542.39" y1="420.24" x2="968.39" y2="420.24"/>
      <line class="cls-2" x1="550.39" y1="437.24" x2="968.39" y2="435.24"/>
      <path class="cls-1" d="M950.5,407.7l10.59-10,29.71,30.89-30.4,28.57-9.8-10.94,20.1-18.23-20.2-20.3Z"/>
    </g>
    <g>
      <line class="cls-2" x1="558.79" y1="731.99" x2="1654.29" y2="731.99"/>
      <line class="cls-2" x1="594.22" y1="745.71" x2="1654.29" y2="746.99"/>
      <path class="cls-1" d="M1636.4,719.44l10.59-10,29.71,30.89-30.4,28.57-9.8-10.94,20.1-18.23-20.2-20.3Z"/>
    </g>
    <g>
      <line class="cls-2" x1="649.55" y1="604.63" x2="1075.55" y2="604.63"/>
      <line class="cls-2" x1="657.55" y1="621.63" x2="1075.55" y2="619.63"/>
      <path class="cls-1" d="M1057.66,592.09l10.59-10,29.71,30.89-30.4,28.57-9.8-10.94,20.1-18.23-20.2-20.3Z"/>
    </g>
    <g>
      <line class="cls-2" x1="631.56" y1="494.77" x2="1315.32" y2="494.77"/>
      <line class="cls-2" x1="644.4" y1="522.06" x2="1315.32" y2="518.85"/>
      <path class="cls-1" d="M1286.6,474.64l17-16.05,47.68,49.58-48.79,45.86-15.73-17.55,32.26-29.26-32.42-32.58Z"/>
    </g>
  </g>
  <g>
    <path class="cls-1" d="M1112.72,645.16h2.9l16.24,34.5,7.64-16.06-8.51-18.26h2.81l7.11,15.54,7.29-15.71h2.63l-8.6,18.43,7.55,16.24,16.06-34.58h2.55l-18.7,40.38-8.95-19.22-9.04,19.22-18.96-40.47Z"/>
    <path class="cls-1" d="M1195.58,685.71h-.79c-5.56,0-10.4-2.09-14.53-6.28-4.13-4.18-6.19-9.06-6.19-14.62s2.05-10.37,6.14-14.44c4.1-4.07,9.16-6.1,15.19-6.1s11.21,2.4,15.54,7.2l-27.56,27.21c3.8,3.04,7.46,4.57,10.97,4.57s6.66-.8,9.44-2.41c2.78-1.61,5.08-3.76,6.89-6.45v4.48c-4.16,4.56-9.19,6.85-15.1,6.85Zm-.92-38.97c-4.65,0-8.78,1.8-12.38,5.4-3.6,3.6-5.4,7.74-5.4,12.42s1.55,8.78,4.65,12.29l25.54-25.37c-3.63-3.16-7.77-4.74-12.42-4.74Z"/>
    <path class="cls-1" d="M1219.28,684.66v-65.83h2.81v35.99c1.58-3.22,4.05-5.79,7.42-7.72,3.36-1.93,6.86-2.9,10.49-2.9,5.79,0,10.72,2.03,14.79,6.1,4.07,4.07,6.1,8.94,6.1,14.62s-2.03,10.55-6.1,14.62c-4.07,4.07-9,6.1-14.79,6.1-3.51,0-6.93-.95-10.27-2.85-3.34-1.9-5.88-4.46-7.64-7.68v9.57h-2.81Zm2.63-19.66c0,4.91,1.8,9.17,5.4,12.77,3.6,3.6,7.87,5.4,12.82,5.4s9.17-1.8,12.68-5.4c3.51-3.6,5.27-7.87,5.27-12.82s-1.77-9.23-5.31-12.86c-3.54-3.63-7.77-5.44-12.68-5.44s-9.17,1.83-12.77,5.49c-3.6,3.66-5.4,7.94-5.4,12.86Z"/>
    <path class="cls-1" d="M1339.36,618.82v65.83h-2.81v-9.57c-1.76,3.22-4.3,5.78-7.64,7.68-3.34,1.9-6.76,2.85-10.27,2.85-5.79,0-10.72-2.03-14.79-6.1-4.07-4.07-6.1-8.94-6.1-14.62s2.03-10.55,6.1-14.62c4.07-4.07,9-6.1,14.79-6.1,3.63,0,7.12,.97,10.49,2.9,3.36,1.93,5.84,4.51,7.42,7.72v-35.99h2.81Zm-38.8,46.13c0,4.95,1.76,9.22,5.27,12.82,3.51,3.6,7.74,5.4,12.68,5.4s9.22-1.8,12.82-5.4c3.6-3.6,5.4-7.86,5.4-12.77s-1.8-9.2-5.4-12.86c-3.6-3.66-7.86-5.49-12.77-5.49s-9.14,1.81-12.68,5.44c-3.54,3.63-5.31,7.92-5.31,12.86Z"/>
    <path class="cls-1" d="M1369.64,685.71h-.79c-5.56,0-10.4-2.09-14.53-6.28-4.13-4.18-6.19-9.06-6.19-14.62s2.05-10.37,6.14-14.44c4.1-4.07,9.16-6.1,15.19-6.1s11.21,2.4,15.54,7.2l-27.56,27.21c3.8,3.04,7.46,4.57,10.97,4.57s6.66-.8,9.44-2.41c2.78-1.61,5.08-3.76,6.89-6.45v4.48c-4.16,4.56-9.19,6.85-15.1,6.85Zm-.92-38.97c-4.65,0-8.78,1.8-12.38,5.4-3.6,3.6-5.4,7.74-5.4,12.42s1.55,8.78,4.65,12.29l25.54-25.37c-3.63-3.16-7.77-4.74-12.42-4.74Z"/>
    <path class="cls-1" d="M1426.61,645.16h2.55l-19.4,40.64-19.49-40.64h3.07l16.68,34.67,16.59-34.67Z"/>
    <path class="cls-1" d="M1456.36,685.71h-.79c-5.56,0-10.4-2.09-14.53-6.28-4.13-4.18-6.19-9.06-6.19-14.62s2.05-10.37,6.14-14.44c4.1-4.07,9.16-6.1,15.19-6.1s11.21,2.4,15.54,7.2l-27.56,27.21c3.8,3.04,7.46,4.57,10.97,4.57s6.66-.8,9.44-2.41c2.78-1.61,5.08-3.76,6.89-6.45v4.48c-4.16,4.56-9.19,6.85-15.1,6.85Zm-.92-38.97c-4.65,0-8.78,1.8-12.38,5.4-3.6,3.6-5.4,7.74-5.4,12.42s1.55,8.78,4.65,12.29l25.54-25.37c-3.63-3.16-7.77-4.74-12.42-4.74Z"/>
    <path class="cls-1" d="M1495.07,682.99v2.46c-4.16,0-7.7-1.39-10.62-4.17-2.93-2.78-4.39-6.33-4.39-10.66v-51.79h2.81v51.79c0,3.57,1.19,6.53,3.56,8.87,2.37,2.34,5.25,3.51,8.65,3.51Z"/>
    <path class="cls-1" d="M1502.45,679.34c-4.04-4.18-6.06-9.05-6.06-14.61s2.05-10.37,6.14-14.44c4.1-4.07,9.03-6.1,14.79-6.1s10.68,2.03,14.75,6.1c4.07,4.07,6.1,8.9,6.1,14.48s-1.99,10.46-5.97,14.62c-3.98,4.16-8.81,6.23-14.48,6.23h-.79c-5.62,0-10.45-2.09-14.48-6.28Zm32.92-14.4c0-4.94-1.77-9.23-5.31-12.86-3.54-3.63-7.77-5.44-12.68-5.44s-9.17,1.83-12.77,5.49c-3.6,3.66-5.4,7.94-5.4,12.86s1.8,9.17,5.4,12.77c3.6,3.6,7.87,5.4,12.82,5.4s9.17-1.8,12.68-5.4c3.51-3.6,5.27-7.87,5.27-12.82Z"/>
    <path class="cls-1" d="M1546.51,702.21v-57.06h2.81v9.66c1.58-3.22,4.05-5.79,7.42-7.72,3.36-1.93,6.86-2.9,10.49-2.9,5.79,0,10.72,2.03,14.79,6.1,4.07,4.07,6.1,8.94,6.1,14.62s-2.03,10.55-6.1,14.62c-4.07,4.07-9,6.1-14.79,6.1-3.51,0-6.93-.95-10.27-2.85-3.34-1.9-5.88-4.46-7.64-7.68v27.12h-2.81Zm2.63-37.22c0,4.91,1.8,9.17,5.4,12.77,3.6,3.6,7.87,5.4,12.82,5.4s9.17-1.8,12.68-5.4c3.51-3.6,5.27-7.87,5.27-12.82s-1.77-9.23-5.31-12.86c-3.54-3.63-7.77-5.44-12.68-5.44s-9.17,1.83-12.77,5.49c-3.6,3.66-5.4,7.94-5.4,12.86Z"/>
    <path class="cls-1" d="M1616.21,685.71h-.79c-5.56,0-10.4-2.09-14.53-6.28-4.13-4.18-6.19-9.06-6.19-14.62s2.05-10.37,6.14-14.44c4.1-4.07,9.16-6.1,15.19-6.1s11.21,2.4,15.54,7.2l-27.56,27.21c3.8,3.04,7.46,4.57,10.97,4.57s6.66-.8,9.44-2.41c2.78-1.61,5.08-3.76,6.89-6.45v4.48c-4.16,4.56-9.19,6.85-15.1,6.85Zm-.92-38.97c-4.65,0-8.78,1.8-12.38,5.4-3.6,3.6-5.4,7.74-5.4,12.42s1.55,8.78,4.65,12.29l25.54-25.37c-3.63-3.16-7.77-4.74-12.42-4.74Z"/>
    <path class="cls-1" d="M1654.48,646.65c-3.1,0-5.84,1.17-8.21,3.51-2.37,2.34-3.56,5.06-3.56,8.16v26.33h-2.81v-39.5h2.81v5.88c1.05-1.99,2.69-3.63,4.92-4.92,2.22-1.29,4.71-1.93,7.46-1.93s5.38,.94,7.9,2.81v3.51c-2.58-2.57-5.41-3.86-8.51-3.86Z"/>
  </g>
  <g>
    <path class="cls-1" d="M942.68,343.3c-2.2,0-3.29-1.18-3.29-3.55V180.84c0-2.36,1.1-3.55,3.29-3.55h33.96c2.03,0,3.04,1.18,3.04,3.55v61.33h54.74v-61.33c0-2.36,1.18-3.55,3.55-3.55h33.45c2.36,0,3.55,1.18,3.55,3.55v158.91c0,2.37-1.18,3.55-3.55,3.55h-33.45c-2.37,0-3.55-1.18-3.55-3.55v-62.35h-54.74v62.35c0,2.37-1.01,3.55-3.04,3.55h-33.96Z"/>
    <path class="cls-1" d="M1106.65,343.3c-2.2,0-3.29-1.18-3.29-3.55V180.84c0-2.36,1.1-3.55,3.29-3.55h101.38c2.03,0,3.04,1.18,3.04,3.55v28.39c0,2.2-1.01,3.29-3.04,3.29h-64.38v30.41h58.55c2.03,0,3.04,1.18,3.04,3.55v26.36c0,2.37-1.01,3.55-3.04,3.55h-58.55v31.68h64.38c2.03,0,3.04,1.1,3.04,3.3v28.38c0,2.37-1.01,3.55-3.04,3.55h-101.38Z"/>
    <path class="cls-1" d="M1300.28,346.09c-21.63,0-38.44-5.32-50.44-15.97-12-10.64-17.99-27.12-17.99-49.42v-40.55c0-22.3,6-38.82,17.99-49.55,11.99-10.73,28.81-16.09,50.44-16.09,15.54,0,28.68,2.54,39.41,7.6,10.73,5.07,18.59,12.21,23.57,21.42,4.98,9.21,6.63,19.98,4.94,32.31-.17,.85-.51,1.61-1.01,2.28-.51,.68-1.27,1.01-2.28,1.01h-33.96c-2.2,0-3.21-1.18-3.04-3.55,.17-8.11-1.86-14.49-6.08-19.14-4.23-4.65-11.24-6.97-21.04-6.97-9.12,0-16.18,2.53-21.16,7.6-4.99,5.07-7.48,13.18-7.48,24.33v37.51c0,11.32,2.49,19.52,7.48,24.59,4.98,5.07,12.04,7.6,21.16,7.6,10.14,0,17.27-2.53,21.42-7.6,4.14-5.07,6.04-11.23,5.7-18.5-.17-2.54,.84-3.8,3.04-3.8h33.96c2.03,0,3.12,1.18,3.29,3.55,1.35,12.34-.51,23.11-5.58,32.31-5.07,9.21-12.84,16.35-23.32,21.42-10.48,5.07-23.49,7.6-39.03,7.6Z"/>
    <path class="cls-1" d="M1431.31,343.3c-2.03,0-3.04-1.18-3.04-3.55v-127.23h-39.28c-2.37,0-3.55-1.1-3.55-3.29v-28.39c0-2.36,1.18-3.55,3.55-3.55h119.12c2.19,0,3.29,1.18,3.29,3.55v28.39c0,2.2-1.1,3.29-3.29,3.29h-39.28v127.23c0,2.37-1.18,3.55-3.55,3.55h-33.96Z"/>
    <path class="cls-1" d="M1593.26,346.09c-22.64,0-39.79-5.49-51.45-16.47-11.66-10.98-17.49-27.12-17.49-48.41v-41.57c0-21.46,5.83-37.68,17.49-48.66,11.66-10.98,28.81-16.47,51.45-16.47s39.79,5.49,51.45,16.47c11.66,10.98,17.49,27.21,17.49,48.66v41.57c0,21.29-5.83,37.43-17.49,48.41-11.66,10.99-28.81,16.47-51.45,16.47Zm0-35.48c9.8,0,16.98-2.7,21.54-8.11,4.56-5.41,6.84-13.35,6.84-23.82v-36.75c0-10.64-2.28-18.63-6.84-23.95-4.56-5.32-11.75-7.98-21.54-7.98s-16.81,2.66-21.54,7.98c-4.73,5.32-7.1,13.31-7.1,23.95v36.75c0,10.48,2.36,18.42,7.1,23.82,4.73,5.41,11.91,8.11,21.54,8.11Z"/>
    <path class="cls-1" d="M1691.09,343.3c-2.2,0-3.29-1.18-3.29-3.55V180.84c0-2.36,1.1-3.55,3.29-3.55h56.01c22.81,0,39.28,4.48,49.42,13.43,10.14,8.96,15.21,22.22,15.21,39.79,0,11.32-2.24,20.91-6.72,28.77-4.48,7.86-11.79,13.31-21.92,16.35v.51l37.51,62.85c.67,1.18,.8,2.2,.38,3.04-.42,.85-1.31,1.27-2.66,1.27h-37.76c-1.69,0-3.04-.76-4.06-2.28l-32.69-58.8h-15.71v57.53c0,2.37-1.01,3.55-3.04,3.55h-33.96Zm37-93.01h19.01c8.11,0,14.15-1.52,18.12-4.56,3.97-3.04,5.96-8.02,5.96-14.95s-1.82-11.41-5.45-14.45c-3.64-3.04-9.59-4.56-17.87-4.56h-19.77v38.52Z"/>
    <path class="cls-1" d="M894.34,574.97c-2.36,0-3.3-1.35-2.79-4.06l50.18-159.16c.67-1.86,2.03-2.79,4.06-2.79h43.59c2.03,0,3.38,.93,4.06,2.79l50.18,159.16c.84,2.71,0,4.06-2.54,4.06h-37.26c-1.86,0-3.04-.93-3.55-2.79l-24.59-92.76c-1.52-6.08-2.91-12.08-4.18-17.99-1.27-5.91-2.58-11.83-3.93-17.74h-.51c-1.18,5.92-2.45,11.83-3.8,17.74-1.36,5.92-2.79,11.91-4.31,17.99l-24.08,92.51c-.51,2.03-1.77,3.04-3.8,3.04h-36.75Zm41.82-30.16l6.08-31.93h49.42l6.34,31.93h-61.84Z"/>
    <path class="cls-1" d="M1111.79,577.76c-12,0-22.6-2.37-31.81-7.1-9.21-4.73-16.43-11.87-21.67-21.42-5.24-9.54-7.86-21.58-7.86-36.12v-41.57c0-21.96,6.04-38.35,18.12-49.17,12.08-10.81,28.93-16.22,50.56-16.22,15.71,0,28.72,2.5,39.03,7.48,10.3,4.99,17.82,11.75,22.56,20.27,4.73,8.53,6.42,18.12,5.07,28.77-.17,2.2-1.27,3.3-3.3,3.3l-33.96-.25c-1.86,0-2.79-1.18-2.79-3.55,.17-6.42-1.82-11.53-5.96-15.33-4.14-3.8-10.86-5.7-20.15-5.7s-16.64,2.53-21.54,7.6c-4.9,5.07-7.35,13.18-7.35,24.33v38.02c0,11.15,2.54,19.22,7.6,24.2,5.07,4.99,12.42,7.48,22.05,7.48,8.62,0,15.25-1.98,19.9-5.96,4.64-3.97,6.97-9.67,6.97-17.11v-6.59h-26.1c-2.2,0-3.3-1.18-3.3-3.55v-20.27c0-2.37,1.1-3.55,3.3-3.55h62.09c2.03,0,3.04,1.18,3.04,3.55v42.32c0,6.59,.17,13.48,.51,20.66,.34,7.18,.93,13.48,1.77,18.88,.34,1.18,.17,2.11-.51,2.79-.68,.68-1.61,1.01-2.79,1.01h-26.87c-.85,0-1.52-.25-2.03-.76-.51-.51-.93-1.35-1.27-2.53-.51-1.86-.85-4.35-1.01-7.48-.17-3.12-.42-5.96-.76-8.49h-.51c-2.2,4.05-5.11,7.77-8.74,11.15-3.63,3.38-8.07,6.04-13.31,7.98-5.24,1.94-11.58,2.91-19.01,2.91Z"/>
    <path class="cls-1" d="M1281.09,577.76c-22.14,0-38.82-5.28-50.06-15.84-11.24-10.56-16.85-26.9-16.85-49.04v-100.37c0-2.36,1.01-3.55,3.04-3.55h33.96c2.19,0,3.3,1.18,3.3,3.55v98.59c0,10.48,2.07,18.37,6.21,23.7,4.14,5.32,10.94,7.98,20.4,7.98s16.47-2.66,20.53-7.98c4.05-5.32,6.08-13.22,6.08-23.7v-98.59c0-2.36,1.1-3.55,3.3-3.55h33.96c2.19,0,3.29,1.18,3.29,3.55v100.62c0,21.97-5.62,38.23-16.85,48.79-11.24,10.56-28.01,15.84-50.31,15.84Z"/>
    <path class="cls-1" d="M1378.92,574.97c-2.2,0-3.3-1.18-3.3-3.55v-158.91c0-2.36,1.1-3.55,3.3-3.55h33.96c2.03,0,3.04,1.18,3.04,3.55v158.91c0,2.37-1.01,3.55-3.04,3.55h-33.96Z"/>
    <path class="cls-1" d="M1447.6,574.97c-2.2,0-3.3-1.18-3.3-3.55v-158.91c0-2.36,1.1-3.55,3.3-3.55h34.47c1.69,0,2.53,1.18,2.53,3.55v127.23h60.07c2.19,0,3.29,1.1,3.29,3.3v28.38c0,2.37-1.1,3.55-3.29,3.55h-97.07Z"/>
    <path class="cls-1" d="M1558.61,574.97c-2.36,0-3.29-1.35-2.79-4.06l50.18-159.16c.67-1.86,2.03-2.79,4.05-2.79h43.59c2.03,0,3.38,.93,4.06,2.79l50.18,159.16c.84,2.71,0,4.06-2.53,4.06h-37.26c-1.86,0-3.04-.93-3.55-2.79l-24.58-92.76c-1.52-6.08-2.91-12.08-4.18-17.99-1.27-5.91-2.58-11.83-3.93-17.74h-.51c-1.18,5.92-2.45,11.83-3.8,17.74-1.35,5.92-2.79,11.91-4.31,17.99l-24.08,92.51c-.51,2.03-1.77,3.04-3.8,3.04h-36.75Zm41.82-30.16l6.08-31.93h49.42l6.34,31.93h-61.84Z"/>
    <path class="cls-1" d="M1724.87,574.97c-2.2,0-3.3-1.18-3.3-3.55v-158.91c0-2.36,1.1-3.55,3.3-3.55h56.01c22.81,0,39.28,4.48,49.42,13.43,10.14,8.96,15.21,22.22,15.21,39.79,0,11.32-2.24,20.91-6.72,28.77-4.48,7.86-11.79,13.31-21.92,16.35v.51l37.51,62.85c.67,1.18,.8,2.2,.38,3.04-.42,.85-1.31,1.27-2.66,1.27h-37.76c-1.69,0-3.04-.76-4.05-2.28l-32.7-58.8h-15.71v57.53c0,2.37-1.01,3.55-3.04,3.55h-33.96Zm37-93.01h19.01c8.11,0,14.15-1.52,18.12-4.56,3.97-3.04,5.96-8.02,5.96-14.95s-1.82-11.41-5.45-14.45c-3.63-3.04-9.59-4.56-17.87-4.56h-19.77v38.52Z"/>
  </g>
  <rect class="cls-1" x="18.63" y="16.63" width="815" height="815" rx="217.91" ry="217.91"/>
  <g>
    <path class="cls-4" d="M552.75,277.47l-267.15,248.24c-.44,.41-.2,1.15,.39,1.22l3.34,.42c.64,.08,1.29-.12,1.78-.54l256.56-222.94c4.68-4.07,7.49-9.87,7.79-16.06l.43-8.88c.08-1.67-1.91-2.6-3.14-1.46Z"/>
    <g>
      <path class="cls-4" d="M674.51,253.77c-.83-.43-1.66-.86-2.51-1.29-1.78-.89-3.59-1.8-5.43-2.71l-8.31-4.15c-3.37-1.68-6.81-3.4-10.3-5.15l-.33-.17c-1.66-.83-3.33-1.66-5.01-2.5l-7.42-3.71c-1.04-.52-2.08-1.04-3.13-1.56l-11.84-5.91c-3.56-1.78-7.13-3.56-10.7-5.35l-5.64-2.82c-.93-.46-1.86-.93-2.78-1.39l-34.03-17c-1.77-.88-3.53-1.76-5.26-2.63l-.24-.12c-1.7-.85-3.38-1.69-5.04-2.52l-14.01-7c-1.55-.78-3.09-1.54-4.6-2.3l-4.58-2.29c-2.85-1.43-5.61-2.8-8.25-4.12l-6.01-3c-.87-.44-1.73-.86-2.57-1.28l-2.68-1.34c-.76-.38-1.51-.75-2.24-1.12l-2.05-1.02c-2.15-1.07-4.16-2.08-6-3l-7.08-3.54c-.42-.21-.82-.41-1.21-.6l-2.74-1.37c-.51-.26-.95-.47-1.33-.67l-.71-.35c-.11-.06-.22-.11-.31-.16l-.47-.24c-.1-.05-.16-.08-.16-.08-.05-.02-.11-.05-.17-.07-.37-.15-1.34-.47-2.52-.47-2.04,.06-3.78,1.09-3.97,2.28-.06,.6,.32,1.34,1.65,2.18l143.29,90.22s.02,.01,.03,.02c32.83,20.69,42.8,50.71,25.65,77.25l-282.8,437.64c-4.81,7.44,4.45,15.43,17.87,15.43h0c99.97,0,186.27-41.57,206.86-99.65l124.48-351.18c10.63-29.99-6.79-61-45.38-81.2Z"/>
      <path class="cls-4" d="M481.57,74.94c4.81-7.44-4.45-15.43-17.87-15.43h0c-99.97,0-186.27,41.57-206.86,99.65l-124.48,351.18c-10.63,29.99,6.79,61,45.38,81.2,.83,.43,1.66,.86,2.51,1.29,1.78,.89,3.59,1.8,5.43,2.71l8.31,4.15c3.37,1.68,6.81,3.4,10.3,5.15l.33,.17c1.66,.83,3.33,1.66,5.01,2.5l7.42,3.71c1.04,.52,2.08,1.04,3.13,1.56l11.84,5.91c3.56,1.78,7.13,3.56,10.7,5.35l5.64,2.82c.93,.46,1.86,.93,2.78,1.39l34.03,17c1.77,.88,3.53,1.76,5.26,2.63l.24,.12c1.7,.85,3.38,1.69,5.04,2.52l14.01,7c1.55,.78,3.09,1.54,4.6,2.3l4.58,2.29c2.85,1.43,5.61,2.8,8.25,4.12l6.01,3c.87,.44,1.73,.86,2.57,1.28l2.68,1.34c.76,.38,1.51,.75,2.24,1.12l2.05,1.02c2.15,1.07,4.15,2.08,6,3l7.08,3.54c.42,.21,.82,.41,1.21,.6l2.74,1.37c.51,.26,.95,.47,1.33,.67l.71,.35c.11,.06,.22,.11,.31,.16l.47,.24c.1,.05,.16,.08,.16,.08,.05,.02,.11,.05,.17,.07,.37,.15,1.34,.47,2.52,.47,2.04-.06,3.78-1.09,3.97-2.28,.06-.6-.32-1.34-1.65-2.18l-143.29-90.22s-.02-.01-.03-.02c-32.83-20.69-42.8-50.71-25.65-77.25L481.57,74.94Z"/>
    </g>
  </g>
</svg>