<svg id="visual" viewBox="0 0 1980 400" width="1980" height="400" xmlns="http://www.w3.org/2000/svg" xmlns:xlink="http://www.w3.org/1999/xlink" version="1.1"><g stroke-width="1" stroke-linejoin="bevel"><path d="M1007 140L989 120L890 171Z" fill="#007389" stroke="#007389"></path><path d="M890 171L927 254L1007 140Z" fill="#00d39b" stroke="#00d39b"></path><path d="M927 254L970 270L1007 140Z" fill="#00a4a9" stroke="#00a4a9"></path><path d="M989 120L861 98L890 171Z" fill="#007389" stroke="#007389"></path><path d="M970 270L1084 196L1007 140Z" fill="#2dfc52" stroke="#2dfc52"></path><path d="M1103 59L953 0L989 120Z" fill="#008b9b" stroke="#008b9b"></path><path d="M999 400L1017 291L970 270Z" fill="#00e97f" stroke="#00e97f"></path><path d="M970 270L1017 291L1084 196Z" fill="#00bcaa" stroke="#00bcaa"></path><path d="M861 98L785 189L890 171Z" fill="#005c75" stroke="#005c75"></path><path d="M890 171L785 189L927 254Z" fill="#03465f" stroke="#03465f"></path><path d="M1103 59L989 120L1007 140Z" fill="#2dfc52" stroke="#2dfc52"></path><path d="M989 120L953 0L861 98Z" fill="#063149" stroke="#063149"></path><path d="M953 0L899 0L861 98Z" fill="#03465f" stroke="#03465f"></path><path d="M861 98L776 107L785 189Z" fill="#03465f" stroke="#03465f"></path><path d="M1084 196L1103 59L1007 140Z" fill="#00d39b" stroke="#00d39b"></path><path d="M738 31L776 107L861 98Z" fill="#00e97f" stroke="#00e97f"></path><path d="M1017 291L1131 284L1084 196Z" fill="#00bcaa" stroke="#00bcaa"></path><path d="M1084 196L1220 176L1103 59Z" fill="#008b9b" stroke="#008b9b"></path><path d="M785 189L842 354L927 254Z" fill="#008b9b" stroke="#008b9b"></path><path d="M927 254L879 400L970 270Z" fill="#008b9b" stroke="#008b9b"></path><path d="M1017 291L1097 342L1131 284Z" fill="#00a4a9" stroke="#00a4a9"></path><path d="M805 400L842 364L842 354Z" fill="#005c75" stroke="#005c75"></path><path d="M879 400L999 400L970 270Z" fill="#00a4a9" stroke="#00a4a9"></path><path d="M999 400L1097 342L1017 291Z" fill="#063149" stroke="#063149"></path><path d="M1191 0L1102 0L1103 59Z" fill="#2dfc52" stroke="#2dfc52"></path><path d="M1103 59L1102 0L953 0Z" fill="#005c75" stroke="#005c75"></path><path d="M776 107L723 188L785 189Z" fill="#00d39b" stroke="#00d39b"></path><path d="M785 189L710 346L842 354Z" fill="#03465f" stroke="#03465f"></path><path d="M879 400L927 254L842 354Z" fill="#00d39b" stroke="#00d39b"></path><path d="M842 364L879 400L842 354Z" fill="#063149" stroke="#063149"></path><path d="M899 0L738 31L861 98Z" fill="#005c75" stroke="#005c75"></path><path d="M776 107L641 76L723 188Z" fill="#00e97f" stroke="#00e97f"></path><path d="M1192 400L1198 264L1131 284Z" fill="#008b9b" stroke="#008b9b"></path><path d="M1131 284L1198 264L1084 196Z" fill="#00a4a9" stroke="#00a4a9"></path><path d="M1198 264L1220 176L1084 196Z" fill="#2dfc52" stroke="#2dfc52"></path><path d="M710 346L805 400L842 354Z" fill="#00e97f" stroke="#00e97f"></path><path d="M842 364L805 400L879 400Z" fill="#007389" stroke="#007389"></path><path d="M899 0L737 0L738 31Z" fill="#00e97f" stroke="#00e97f"></path><path d="M641 76L642 188L723 188Z" fill="#2dfc52" stroke="#2dfc52"></path><path d="M737 0L722 0L738 31Z" fill="#00e97f" stroke="#00e97f"></path><path d="M1220 176L1221 57L1103 59Z" fill="#2dfc52" stroke="#2dfc52"></path><path d="M1221 57L1191 0L1103 59Z" fill="#007389" stroke="#007389"></path><path d="M999 400L1142 400L1097 342Z" fill="#051e32" stroke="#051e32"></path><path d="M1097 342L1142 400L1131 284Z" fill="#007389" stroke="#007389"></path><path d="M1198 264L1263 192L1220 176Z" fill="#03465f" stroke="#03465f"></path><path d="M1220 176L1259 77L1221 57Z" fill="#007389" stroke="#007389"></path><path d="M1192 400L1230 278L1198 264Z" fill="#00e97f" stroke="#00e97f"></path><path d="M723 188L710 346L785 189Z" fill="#008b9b" stroke="#008b9b"></path><path d="M640 287L710 346L723 188Z" fill="#03465f" stroke="#03465f"></path><path d="M1192 400L1237 281L1230 278Z" fill="#00a4a9" stroke="#00a4a9"></path><path d="M1230 278L1263 192L1198 264Z" fill="#00e97f" stroke="#00e97f"></path><path d="M641 76L776 107L738 31Z" fill="#008b9b" stroke="#008b9b"></path><path d="M1237 281L1263 192L1230 278Z" fill="#008b9b" stroke="#008b9b"></path><path d="M526 154L639 194L642 188Z" fill="#00a4a9" stroke="#00a4a9"></path><path d="M642 188L639 194L723 188Z" fill="#00a4a9" stroke="#00a4a9"></path><path d="M1263 192L1259 77L1220 176Z" fill="#00d39b" stroke="#00d39b"></path><path d="M1221 57L1343 0L1191 0Z" fill="#00d39b" stroke="#00d39b"></path><path d="M722 0L641 76L738 31Z" fill="#00bcaa" stroke="#00bcaa"></path><path d="M1142 400L1192 400L1131 284Z" fill="#2dfc52" stroke="#2dfc52"></path><path d="M639 194L640 287L723 188Z" fill="#00d39b" stroke="#00d39b"></path><path d="M1237 281L1303 183L1263 192Z" fill="#2dfc52" stroke="#2dfc52"></path><path d="M1263 192L1303 183L1259 77Z" fill="#051e32" stroke="#051e32"></path><path d="M1383 270L1303 183L1237 281Z" fill="#051e32" stroke="#051e32"></path><path d="M640 287L665 400L710 346Z" fill="#00e97f" stroke="#00e97f"></path><path d="M710 346L665 400L805 400Z" fill="#00d39b" stroke="#00d39b"></path><path d="M722 0L613 0L641 76Z" fill="#007389" stroke="#007389"></path><path d="M641 76L565 105L642 188Z" fill="#00a4a9" stroke="#00a4a9"></path><path d="M639 194L544 280L640 287Z" fill="#005c75" stroke="#005c75"></path><path d="M613 0L565 105L641 76Z" fill="#051e32" stroke="#051e32"></path><path d="M640 287L598 400L665 400Z" fill="#03465f" stroke="#03465f"></path><path d="M530 354L598 400L640 287Z" fill="#005c75" stroke="#005c75"></path><path d="M526 154L544 280L639 194Z" fill="#005c75" stroke="#005c75"></path><path d="M1422 24L1343 0L1259 77Z" fill="#00e97f" stroke="#00e97f"></path><path d="M1259 77L1343 0L1221 57Z" fill="#00a4a9" stroke="#00a4a9"></path><path d="M502 129L526 154L565 105Z" fill="#008b9b" stroke="#008b9b"></path><path d="M565 105L526 154L642 188Z" fill="#063149" stroke="#063149"></path><path d="M1192 400L1318 400L1237 281Z" fill="#051e32" stroke="#051e32"></path><path d="M1303 183L1422 24L1259 77Z" fill="#2dfc52" stroke="#2dfc52"></path><path d="M1318 400L1383 270L1237 281Z" fill="#03465f" stroke="#03465f"></path><path d="M1383 270L1403 188L1303 183Z" fill="#2dfc52" stroke="#2dfc52"></path><path d="M516 0L502 129L565 105Z" fill="#03465f" stroke="#03465f"></path><path d="M526 154L440 183L544 280Z" fill="#00a4a9" stroke="#00a4a9"></path><path d="M442 267L530 354L544 280Z" fill="#005c75" stroke="#005c75"></path><path d="M544 280L530 354L640 287Z" fill="#00d39b" stroke="#00d39b"></path><path d="M613 0L516 0L565 105Z" fill="#051e32" stroke="#051e32"></path><path d="M1422 24L1392 0L1343 0Z" fill="#00d39b" stroke="#00d39b"></path><path d="M1383 270L1450 208L1403 188Z" fill="#03465f" stroke="#03465f"></path><path d="M1318 400L1410 313L1383 270Z" fill="#2dfc52" stroke="#2dfc52"></path><path d="M530 354L528 400L598 400Z" fill="#2dfc52" stroke="#2dfc52"></path><path d="M451 400L528 400L530 354Z" fill="#00d39b" stroke="#00d39b"></path><path d="M1403 188L1422 24L1303 183Z" fill="#00d39b" stroke="#00d39b"></path><path d="M1523 102L1422 24L1403 188Z" fill="#00bcaa" stroke="#00bcaa"></path><path d="M1457 278L1450 208L1383 270Z" fill="#00d39b" stroke="#00d39b"></path><path d="M378 100L440 183L502 129Z" fill="#00a4a9" stroke="#00a4a9"></path><path d="M502 129L440 183L526 154Z" fill="#00a4a9" stroke="#00a4a9"></path><path d="M1480 331L1457 278L1410 313Z" fill="#063149" stroke="#063149"></path><path d="M1410 313L1457 278L1383 270Z" fill="#005c75" stroke="#005c75"></path><path d="M440 183L442 267L544 280Z" fill="#2dfc52" stroke="#2dfc52"></path><path d="M1318 400L1423 400L1410 313Z" fill="#063149" stroke="#063149"></path><path d="M440 183L435 269L442 267Z" fill="#2dfc52" stroke="#2dfc52"></path><path d="M442 267L451 400L530 354Z" fill="#00d39b" stroke="#00d39b"></path><path d="M1423 400L1480 331L1410 313Z" fill="#007389" stroke="#007389"></path><path d="M1532 140L1523 102L1450 208Z" fill="#00d39b" stroke="#00d39b"></path><path d="M1450 208L1523 102L1403 188Z" fill="#051e32" stroke="#051e32"></path><path d="M435 269L451 400L442 267Z" fill="#007389" stroke="#007389"></path><path d="M516 0L427 0L502 129Z" fill="#007389" stroke="#007389"></path><path d="M440 183L383 194L435 269Z" fill="#008b9b" stroke="#008b9b"></path><path d="M378 100L383 194L440 183Z" fill="#051e32" stroke="#051e32"></path><path d="M435 269L348 400L451 400Z" fill="#00d39b" stroke="#00d39b"></path><path d="M1532 140L1450 208L1602 277Z" fill="#2dfc52" stroke="#2dfc52"></path><path d="M1422 24L1530 0L1392 0Z" fill="#007389" stroke="#007389"></path><path d="M427 0L378 100L502 129Z" fill="#00e97f" stroke="#00e97f"></path><path d="M1602 277L1450 208L1457 278Z" fill="#00bcaa" stroke="#00bcaa"></path><path d="M1595 0L1530 0L1523 102Z" fill="#03465f" stroke="#03465f"></path><path d="M1523 102L1530 0L1422 24Z" fill="#2dfc52" stroke="#2dfc52"></path><path d="M1423 400L1511 400L1480 331Z" fill="#00a4a9" stroke="#00a4a9"></path><path d="M1626 250L1562 130L1532 140Z" fill="#008b9b" stroke="#008b9b"></path><path d="M1602 277L1457 278L1480 331Z" fill="#008b9b" stroke="#008b9b"></path><path d="M1532 140L1562 130L1523 102Z" fill="#00e97f" stroke="#00e97f"></path><path d="M244 183L323 293L383 194Z" fill="#03465f" stroke="#03465f"></path><path d="M383 194L323 293L435 269Z" fill="#00bcaa" stroke="#00bcaa"></path><path d="M323 293L348 400L435 269Z" fill="#008b9b" stroke="#008b9b"></path><path d="M1511 400L1565 400L1480 331Z" fill="#00a4a9" stroke="#00a4a9"></path><path d="M1565 400L1602 277L1480 331Z" fill="#063149" stroke="#063149"></path><path d="M1562 130L1595 0L1523 102Z" fill="#2dfc52" stroke="#2dfc52"></path><path d="M1655 29L1595 0L1562 130Z" fill="#005c75" stroke="#005c75"></path><path d="M1651 260L1626 250L1602 277Z" fill="#051e32" stroke="#051e32"></path><path d="M1602 277L1626 250L1532 140Z" fill="#063149" stroke="#063149"></path><path d="M1708 400L1651 260L1602 277Z" fill="#00d39b" stroke="#00d39b"></path><path d="M1626 250L1667 204L1562 130Z" fill="#2dfc52" stroke="#2dfc52"></path><path d="M378 100L244 183L383 194Z" fill="#007389" stroke="#007389"></path><path d="M323 293L248 314L348 400Z" fill="#007389" stroke="#007389"></path><path d="M249 59L244 183L378 100Z" fill="#005c75" stroke="#005c75"></path><path d="M257 0L249 59L378 100Z" fill="#03465f" stroke="#03465f"></path><path d="M1651 260L1667 204L1626 250Z" fill="#00a4a9" stroke="#00a4a9"></path><path d="M427 0L257 0L378 100Z" fill="#008b9b" stroke="#008b9b"></path><path d="M1667 204L1655 29L1562 130Z" fill="#00e97f" stroke="#00e97f"></path><path d="M244 183L248 314L323 293Z" fill="#03465f" stroke="#03465f"></path><path d="M1778 0L1664 0L1655 29Z" fill="#008b9b" stroke="#008b9b"></path><path d="M1655 29L1664 0L1595 0Z" fill="#00a4a9" stroke="#00a4a9"></path><path d="M206 178L221 192L244 183Z" fill="#03465f" stroke="#03465f"></path><path d="M244 183L221 192L248 314Z" fill="#00d39b" stroke="#00d39b"></path><path d="M206 178L244 183L249 59Z" fill="#051e32" stroke="#051e32"></path><path d="M145 120L206 178L249 59Z" fill="#00e97f" stroke="#00e97f"></path><path d="M154 352L189 371L248 314Z" fill="#00bcaa" stroke="#00bcaa"></path><path d="M257 0L206 0L249 59Z" fill="#051e32" stroke="#051e32"></path><path d="M1651 260L1720 280L1667 204Z" fill="#00a4a9" stroke="#00a4a9"></path><path d="M1667 204L1769 108L1655 29Z" fill="#051e32" stroke="#051e32"></path><path d="M1708 400L1720 280L1651 260Z" fill="#00bcaa" stroke="#00bcaa"></path><path d="M152 237L221 192L206 178Z" fill="#03465f" stroke="#03465f"></path><path d="M152 237L248 314L221 192Z" fill="#00bcaa" stroke="#00bcaa"></path><path d="M248 314L189 371L348 400Z" fill="#00bcaa" stroke="#00bcaa"></path><path d="M1565 400L1708 400L1602 277Z" fill="#00d39b" stroke="#00d39b"></path><path d="M1803 191L1749 183L1720 280Z" fill="#00d39b" stroke="#00d39b"></path><path d="M1720 280L1749 183L1667 204Z" fill="#005c75" stroke="#005c75"></path><path d="M142 181L152 237L206 178Z" fill="#2dfc52" stroke="#2dfc52"></path><path d="M206 0L145 120L249 59Z" fill="#008b9b" stroke="#008b9b"></path><path d="M145 120L142 181L206 178Z" fill="#051e32" stroke="#051e32"></path><path d="M154 352L248 314L152 237Z" fill="#051e32" stroke="#051e32"></path><path d="M154 352L170 400L189 371Z" fill="#2dfc52" stroke="#2dfc52"></path><path d="M189 371L170 400L348 400Z" fill="#00d39b" stroke="#00d39b"></path><path d="M1749 183L1769 108L1667 204Z" fill="#00d39b" stroke="#00d39b"></path><path d="M1803 191L1769 108L1749 183Z" fill="#008b9b" stroke="#008b9b"></path><path d="M118 400L154 352L0 324Z" fill="#005c75" stroke="#005c75"></path><path d="M1708 400L1766 323L1720 280Z" fill="#00d39b" stroke="#00d39b"></path><path d="M1862 84L1778 0L1769 108Z" fill="#00d39b" stroke="#00d39b"></path><path d="M1769 108L1778 0L1655 29Z" fill="#00bcaa" stroke="#00bcaa"></path><path d="M206 0L123 0L145 120Z" fill="#007389" stroke="#007389"></path><path d="M145 120L91 135L142 181Z" fill="#03465f" stroke="#03465f"></path><path d="M142 181L0 284L152 237Z" fill="#00e97f" stroke="#00e97f"></path><path d="M1824 271L1803 191L1720 280Z" fill="#063149" stroke="#063149"></path><path d="M123 0L91 135L145 120Z" fill="#00e97f" stroke="#00e97f"></path><path d="M0 284L154 352L152 237Z" fill="#03465f" stroke="#03465f"></path><path d="M154 352L118 400L170 400Z" fill="#007389" stroke="#007389"></path><path d="M1815 400L1824 271L1766 323Z" fill="#051e32" stroke="#051e32"></path><path d="M1766 323L1824 271L1720 280Z" fill="#00a4a9" stroke="#00a4a9"></path><path d="M1803 191L1834 127L1769 108Z" fill="#063149" stroke="#063149"></path><path d="M1980 202L1834 127L1803 191Z" fill="#051e32" stroke="#051e32"></path><path d="M1708 400L1815 400L1766 323Z" fill="#008b9b" stroke="#008b9b"></path><path d="M1980 117L1862 84L1834 127Z" fill="#00d39b" stroke="#00d39b"></path><path d="M1834 127L1862 84L1769 108Z" fill="#008b9b" stroke="#008b9b"></path><path d="M1891 0L1862 84L1980 65Z" fill="#007389" stroke="#007389"></path><path d="M0 105L0 133L91 135Z" fill="#007389" stroke="#007389"></path><path d="M91 135L0 284L142 181Z" fill="#063149" stroke="#063149"></path><path d="M1980 202L1803 191L1824 271Z" fill="#063149" stroke="#063149"></path><path d="M1862 84L1891 0L1778 0Z" fill="#00d39b" stroke="#00d39b"></path><path d="M123 0L0 105L91 135Z" fill="#00e97f" stroke="#00e97f"></path><path d="M0 133L0 284L91 135Z" fill="#00d39b" stroke="#00d39b"></path><path d="M0 284L0 324L154 352Z" fill="#005c75" stroke="#005c75"></path><path d="M123 0L0 0L0 105Z" fill="#00bcaa" stroke="#00bcaa"></path><path d="M1815 400L1902 400L1824 271Z" fill="#00e97f" stroke="#00e97f"></path><path d="M0 324L0 400L118 400Z" fill="#00e97f" stroke="#00e97f"></path><path d="M1902 400L1934 362L1824 271Z" fill="#063149" stroke="#063149"></path><path d="M1980 280L1980 202L1824 271Z" fill="#008b9b" stroke="#008b9b"></path><path d="M1980 202L1980 117L1834 127Z" fill="#00a4a9" stroke="#00a4a9"></path><path d="M1980 117L1980 65L1862 84Z" fill="#051e32" stroke="#051e32"></path><path d="M1934 362L1980 280L1824 271Z" fill="#008b9b" stroke="#008b9b"></path><path d="M1980 65L1980 0L1891 0Z" fill="#00a4a9" stroke="#00a4a9"></path><path d="M1902 400L1980 400L1934 362Z" fill="#007389" stroke="#007389"></path><path d="M1934 362L1980 400L1980 280Z" fill="#00e97f" stroke="#00e97f"></path></g></svg>