<?xml version="1.0" encoding="UTF-8"?>
<svg id="Capa_1" data-name="Capa 1" xmlns="http://www.w3.org/2000/svg" viewBox="0 0 872 1080">
  <defs>
    <style>
      .cls-1 {
        fill: #fff;
      }
    </style>
  </defs>
  <path class="cls-1" d="M621.68,327.11L229.93,691.12c-.65,.6-.3,1.68,.58,1.79l4.89,.62c.94,.12,1.89-.17,2.61-.79l376.22-326.92c6.86-5.96,10.99-14.47,11.42-23.55l.62-13.03c.12-2.45-2.8-3.81-4.6-2.14Z"/>
  <g>
    <path class="cls-1" d="M800.22,292.36c-1.21-.63-2.43-1.26-3.68-1.89-2.61-1.3-5.27-2.63-7.96-3.98l-12.18-6.09c-4.94-2.47-9.99-4.99-15.11-7.55l-.49-.24c-2.43-1.21-4.88-2.44-7.34-3.67l-10.88-5.43c-1.53-.76-3.05-1.53-4.59-2.29l-17.36-8.67c-5.21-2.6-10.45-5.22-15.69-7.84l-8.27-4.13c-1.36-.68-2.72-1.36-4.08-2.04l-49.9-24.93c-2.59-1.3-5.17-2.58-7.72-3.86l-.35-.18c-2.49-1.24-4.95-2.47-7.39-3.69l-20.55-10.27c-2.28-1.14-4.53-2.27-6.75-3.37l-6.71-3.35c-4.18-2.09-8.22-4.11-12.1-6.05l-8.81-4.4c-1.28-.64-2.54-1.27-3.77-1.88l-3.92-1.96c-1.12-.56-2.22-1.11-3.29-1.64l-3-1.5c-3.15-1.57-6.09-3.04-8.8-4.4l-10.39-5.19c-.62-.31-1.21-.6-1.77-.89l-4.01-2c-.75-.37-1.39-.69-1.95-.98l-1.04-.52c-.17-.08-.32-.16-.46-.23l-.69-.35c-.14-.07-.24-.12-.24-.12-.08-.04-.16-.07-.24-.1-.54-.21-1.97-.7-3.7-.68-2.99,.08-5.54,1.6-5.81,3.34-.08,.89,.47,1.97,2.42,3.19l210.11,132.3s.03,.02,.05,.03c48.14,30.33,62.77,74.36,37.62,113.27l-414.69,641.74c-7.05,10.91,6.52,22.63,26.21,22.63h0c146.6,0,273.15-60.96,303.33-146.12l182.53-514.97c15.59-43.98-9.95-89.44-66.55-119.07Z"/>
    <path class="cls-1" d="M517.3,30.12c7.05-10.91-6.52-22.63-26.21-22.63h0c-146.6,0-273.15,60.96-303.33,146.12L5.23,668.57c-15.59,43.98,9.95,89.44,66.55,119.07,1.21,.63,2.43,1.26,3.68,1.89,2.61,1.3,5.27,2.63,7.96,3.98l12.18,6.09c4.94,2.47,9.99,4.99,15.11,7.55l.49,.24c2.43,1.21,4.88,2.44,7.34,3.67l10.88,5.43c1.53,.76,3.05,1.53,4.59,2.29l17.36,8.67c5.21,2.6,10.45,5.22,15.69,7.84l8.27,4.13c1.36,.68,2.72,1.36,4.08,2.04l49.9,24.93c2.59,1.3,5.17,2.58,7.72,3.86l.35,.18c2.49,1.24,4.95,2.47,7.39,3.69l20.55,10.27c2.28,1.14,4.53,2.27,6.75,3.37l6.71,3.35c4.18,2.09,8.22,4.11,12.1,6.05l8.81,4.4c1.28,.64,2.54,1.27,3.77,1.88l3.92,1.96c1.12,.56,2.22,1.11,3.29,1.64l3,1.5c3.15,1.57,6.09,3.04,8.8,4.4l10.39,5.19c.62,.31,1.21,.6,1.77,.89l4.01,2c.75,.37,1.39,.69,1.95,.98l1.04,.52c.17,.08,.32,.16,.46,.23l.69,.35c.14,.07,.24,.12,.24,.12,.08,.04,.16,.07,.24,.1,.54,.21,1.97,.7,3.7,.68,2.99-.08,5.54-1.6,5.81-3.34,.08-.89-.47-1.97-2.42-3.19l-210.11-132.3s-.03-.02-.05-.03c-48.14-30.33-62.77-74.36-37.62-113.27L517.3,30.12Z"/>
  </g>
</svg>