<svg xmlns="http://www.w3.org/2000/svg" version="1.1" xmlns:xlink="http://www.w3.org/1999/xlink" xmlns:svgjs="http://svgjs.com/svgjs" width="1920" height="1080" preserveAspectRatio="none" viewBox="0 0 1920 1080"><g mask="url(&quot;#SvgjsMask1030&quot;)" fill="none"><rect width="1920" height="1080" x="0" y="0" fill="rgba(14, 116, 144, 1)"></rect><path d="M1250 1004L1249 1509" stroke-width="8" stroke="url(#SvgjsLinearGradient1031)" stroke-linecap="round" class="Up"></path><path d="M1035 318L1034 934" stroke-width="8" stroke="url(#SvgjsLinearGradient1032)" stroke-linecap="round" class="Down"></path><path d="M1905 1043L1904 1520" stroke-width="8" stroke="url(#SvgjsLinearGradient1031)" stroke-linecap="round" class="Up"></path><path d="M73 981L72 1613" stroke-width="6" stroke="url(#SvgjsLinearGradient1032)" stroke-linecap="round" class="Down"></path><path d="M1114 1055L1113 1742" stroke-width="10" stroke="url(#SvgjsLinearGradient1033)" stroke-linecap="round" class="Up"></path><path d="M921 759L920 200" stroke-width="6" stroke="url(#SvgjsLinearGradient1033)" stroke-linecap="round" class="Up"></path><path d="M246 567L245 1372" stroke-width="6" stroke="url(#SvgjsLinearGradient1032)" stroke-linecap="round" class="Down"></path><path d="M841 1007L840 1767" stroke-width="10" stroke="url(#SvgjsLinearGradient1032)" stroke-linecap="round" class="Down"></path><path d="M1166 8L1165 -448" stroke-width="6" stroke="url(#SvgjsLinearGradient1032)" stroke-linecap="round" class="Down"></path><path d="M1326 475L1325 1149" stroke-width="6" stroke="url(#SvgjsLinearGradient1033)" stroke-linecap="round" class="Up"></path><path d="M706 902L705 1184" stroke-width="8" stroke="url(#SvgjsLinearGradient1031)" stroke-linecap="round" class="Up"></path><path d="M1422 66L1421 363" stroke-width="8" stroke="url(#SvgjsLinearGradient1031)" stroke-linecap="round" class="Up"></path><path d="M1637 733L1636 50" stroke-width="8" stroke="url(#SvgjsLinearGradient1033)" stroke-linecap="round" class="Up"></path><path d="M483 855L482 581" stroke-width="8" stroke="url(#SvgjsLinearGradient1031)" stroke-linecap="round" class="Up"></path><path d="M463 972L462 208" stroke-width="6" stroke="url(#SvgjsLinearGradient1033)" stroke-linecap="round" class="Up"></path><path d="M601 206L600 496" stroke-width="8" stroke="url(#SvgjsLinearGradient1031)" stroke-linecap="round" class="Up"></path><path d="M1338 965L1337 1428" stroke-width="8" stroke="url(#SvgjsLinearGradient1034)" stroke-linecap="round" class="Down"></path><path d="M1647 1013L1646 694" stroke-width="6" stroke="url(#SvgjsLinearGradient1032)" stroke-linecap="round" class="Down"></path><path d="M334 1041L333 474" stroke-width="8" stroke="url(#SvgjsLinearGradient1033)" stroke-linecap="round" class="Up"></path><path d="M1365 1011L1364 384" stroke-width="10" stroke="url(#SvgjsLinearGradient1033)" stroke-linecap="round" class="Up"></path><path d="M1723 307L1722 796" stroke-width="6" stroke="url(#SvgjsLinearGradient1034)" stroke-linecap="round" class="Down"></path><path d="M1447 753L1446 298" stroke-width="10" stroke="url(#SvgjsLinearGradient1032)" stroke-linecap="round" class="Down"></path><path d="M587 229L586 589" stroke-width="8" stroke="url(#SvgjsLinearGradient1034)" stroke-linecap="round" class="Down"></path><path d="M204 727L203 1302" stroke-width="8" stroke="url(#SvgjsLinearGradient1034)" stroke-linecap="round" class="Down"></path><path d="M1918 649L1917 278" stroke-width="8" stroke="url(#SvgjsLinearGradient1031)" stroke-linecap="round" class="Up"></path><path d="M1399 516L1398 1015" stroke-width="6" stroke="url(#SvgjsLinearGradient1034)" stroke-linecap="round" class="Down"></path><path d="M1295 332L1294 1119" stroke-width="10" stroke="url(#SvgjsLinearGradient1034)" stroke-linecap="round" class="Down"></path><path d="M1231 948L1230 1414" stroke-width="8" stroke="url(#SvgjsLinearGradient1031)" stroke-linecap="round" class="Up"></path><path d="M314 274L313 589" stroke-width="6" stroke="url(#SvgjsLinearGradient1034)" stroke-linecap="round" class="Down"></path><path d="M1504 343L1503 979" stroke-width="10" stroke="url(#SvgjsLinearGradient1033)" stroke-linecap="round" class="Up"></path><path d="M1817 914L1816 1368" stroke-width="6" stroke="url(#SvgjsLinearGradient1031)" stroke-linecap="round" class="Up"></path><path d="M1407 601L1406 -141" stroke-width="6" stroke="url(#SvgjsLinearGradient1031)" stroke-linecap="round" class="Up"></path><path d="M1048 8L1047 -595" stroke-width="10" stroke="url(#SvgjsLinearGradient1033)" stroke-linecap="round" class="Up"></path><path d="M662 312L661 740" stroke-width="6" stroke="url(#SvgjsLinearGradient1032)" stroke-linecap="round" class="Down"></path><path d="M1032 84L1031 887" stroke-width="10" stroke="url(#SvgjsLinearGradient1034)" stroke-linecap="round" class="Down"></path><path d="M1395 671L1394 1369" stroke-width="6" stroke="url(#SvgjsLinearGradient1034)" stroke-linecap="round" class="Down"></path><path d="M237 1004L236 284" stroke-width="10" stroke="url(#SvgjsLinearGradient1034)" stroke-linecap="round" class="Down"></path><path d="M879 959L878 348" stroke-width="6" stroke="url(#SvgjsLinearGradient1033)" stroke-linecap="round" class="Up"></path><path d="M10 671L9 -75" stroke-width="6" stroke="url(#SvgjsLinearGradient1034)" stroke-linecap="round" class="Down"></path><path d="M983 139L982 592" stroke-width="6" stroke="url(#SvgjsLinearGradient1032)" stroke-linecap="round" class="Down"></path><path d="M1446 521L1445 1180" stroke-width="6" stroke="url(#SvgjsLinearGradient1032)" stroke-linecap="round" class="Down"></path><path d="M135 318L134 -73" stroke-width="8" stroke="url(#SvgjsLinearGradient1033)" stroke-linecap="round" class="Up"></path><path d="M108 719L107 1175" stroke-width="6" stroke="url(#SvgjsLinearGradient1031)" stroke-linecap="round" class="Up"></path><path d="M1405 957L1404 493" stroke-width="8" stroke="url(#SvgjsLinearGradient1032)" stroke-linecap="round" class="Down"></path><path d="M410 381L409 88" stroke-width="6" stroke="url(#SvgjsLinearGradient1034)" stroke-linecap="round" class="Down"></path><path d="M745 86L744 532" stroke-width="8" stroke="url(#SvgjsLinearGradient1033)" stroke-linecap="round" class="Up"></path><path d="M1809 39L1808 799" stroke-width="8" stroke="url(#SvgjsLinearGradient1034)" stroke-linecap="round" class="Down"></path><path d="M1071 886L1070 585" stroke-width="10" stroke="url(#SvgjsLinearGradient1034)" stroke-linecap="round" class="Down"></path></g><defs><mask id="SvgjsMask1030"><rect width="1920" height="1080" fill="#ffffff"></rect></mask><linearGradient x1="0%" y1="100%" x2="0%" y2="0%" id="SvgjsLinearGradient1031"><stop stop-color="rgba(84, 23, 155, 0)" offset="0"></stop><stop stop-color="rgba(84, 23, 155, 1)" offset="1"></stop></linearGradient><linearGradient x1="0%" y1="0%" x2="0%" y2="100%" id="SvgjsLinearGradient1032"><stop stop-color="rgba(255, 255, 255, 0)" offset="0"></stop><stop stop-color="rgba(255, 255, 255, 1)" offset="1"></stop></linearGradient><linearGradient x1="0%" y1="100%" x2="0%" y2="0%" id="SvgjsLinearGradient1033"><stop stop-color="rgba(255, 255, 255, 0)" offset="0"></stop><stop stop-color="rgba(255, 255, 255, 1)" offset="1"></stop></linearGradient><linearGradient x1="0%" y1="0%" x2="0%" y2="100%" id="SvgjsLinearGradient1034"><stop stop-color="rgba(84, 23, 155, 0)" offset="0"></stop><stop stop-color="rgba(84, 23, 155, 1)" offset="1"></stop></linearGradient></defs></svg>