<svg width="46" height="46" fill="currentColor" viewBox="0 0 24 24" xmlns="http://www.w3.org/2000/svg">
  <path fill-rule="evenodd" d="M2.25 3h19.5l.75.75v9.75H21V9H3v10.5h10.5V21H2.25l-.75-.75V3.75L2.25 3ZM3 7.5h18v-3H3v3ZM10.5 18v-1.641a2.45 2.45 0 0 1-.704-.398l-1.417.809-.75-1.29 1.405-.82a2.355 2.355 0 0 1 0-.821L7.63 13.02l.75-1.29 1.418.81c.226-.18.461-.313.703-.399V10.5H12v1.641c.257.088.495.223.704.398l1.417-.809.75 1.29-1.405.82c.047.271.047.549 0 .82l1.405.82-.75 1.29-1.418-.81c-.213.167-.45.302-.703.399V18h-1.5Zm-.375-3.75c0 .312.11.578.329.796a1.084 1.084 0 0 0 .796.329 1.084 1.084 0 0 0 .796-.329 1.084 1.084 0 0 0 .329-.796 1.084 1.084 0 0 0-.329-.796 1.084 1.084 0 0 0-.796-.329 1.084 1.084 0 0 0-.796.329 1.084 1.084 0 0 0-.329.796Zm8.001 8.25v-1.641a2.452 2.452 0 0 1-.704-.398l-1.417.809-.75-1.29 1.407-.82a2.356 2.356 0 0 1 0-.821l-1.407-.819.75-1.29 1.418.81a2.44 2.44 0 0 1 .705-.399V15h1.5v1.641c.256.089.494.223.701.398l1.418-.809.75 1.29-1.405.82c.048.271.048.549 0 .82l1.405.82-.75 1.29-1.418-.81c-.213.168-.45.302-.703.399V22.5h-1.5Zm-.375-3.75c0 .312.11.578.328.797a1.084 1.084 0 0 0 .797.328 1.084 1.084 0 0 0 .796-.328 1.086 1.086 0 0 0 .33-.797 1.085 1.085 0 0 0-.33-.797 1.084 1.084 0 0 0-.794-.328 1.084 1.084 0 0 0-.799.328 1.084 1.084 0 0 0-.328.797Z" clip-rule="evenodd" stroke="white" ></path>
</svg>