<?xml version="1.0" encoding="UTF-8"?>
<svg id="Capa_1" data-name="Capa 1" xmlns="http://www.w3.org/2000/svg" xmlns:xlink="http://www.w3.org/1999/xlink" viewBox="0 0 872 1080">
  <defs>
    <style>
      .cls-1 {
        fill: url(#Degradado_sin_nombre_139-2);
      }

      .cls-2 {
        fill: none;
        stroke: #000;
        stroke-miterlimit: 10;
      }

      .cls-3 {
        fill: url(#Degradado_sin_nombre_58-3);
      }

      .cls-4 {
        fill: url(#Degradado_sin_nombre_58-2);
      }

      .cls-5 {
        fill: url(#Degradado_sin_nombre_58);
      }

      .cls-6 {
        fill: url(#Degradado_sin_nombre_139);
      }
    </style>
    <linearGradient id="Degradado_sin_nombre_58" data-name="Degradado sin nombre 58" x1="331.7" y1="463.36" x2="688.79" y2="636.11" gradientUnits="userSpaceOnUse">
      <stop offset=".02" stop-color="#4338ca"/>
      <stop offset=".04" stop-color="#403bc6"/>
      <stop offset=".25" stop-color="#245aa8"/>
      <stop offset=".43" stop-color="#146d96"/>
      <stop offset=".56" stop-color="#0e7490"/>
      <stop offset=".72" stop-color="#0d728d"/>
      <stop offset=".79" stop-color="#0d6c86"/>
      <stop offset=".84" stop-color="#0b627a"/>
      <stop offset=".89" stop-color="#0a5468"/>
      <stop offset=".92" stop-color="#074252"/>
      <stop offset=".96" stop-color="#052b35"/>
      <stop offset=".98" stop-color="#021115"/>
      <stop offset="1" stop-color="#000"/>
    </linearGradient>
    <linearGradient id="Degradado_sin_nombre_58-2" data-name="Degradado sin nombre 58" x1="412.27" y1="874.88" x2="902.73" y2="457.85" xlink:href="#Degradado_sin_nombre_58"/>
    <linearGradient id="Degradado_sin_nombre_139" data-name="Degradado sin nombre 139" x1="807.4" y1="575.14" x2="638.65" y2="110.27" gradientUnits="userSpaceOnUse">
      <stop offset=".11" stop-color="#4338ca"/>
      <stop offset=".12" stop-color="#403bc6"/>
      <stop offset=".26" stop-color="#245aa8"/>
      <stop offset=".37" stop-color="#146d96"/>
      <stop offset=".45" stop-color="#0e7490"/>
      <stop offset=".69" stop-color="#0d7690"/>
      <stop offset=".79" stop-color="#0c7d90"/>
      <stop offset=".87" stop-color="#098990"/>
      <stop offset=".93" stop-color="#069a90"/>
      <stop offset=".98" stop-color="#02b190"/>
      <stop offset="1" stop-color="#00be90"/>
    </linearGradient>
    <linearGradient id="Degradado_sin_nombre_58-3" data-name="Degradado sin nombre 58" x1="-143.73" y1="1008.98" x2="346.73" y2="591.95" gradientTransform="translate(316 1214.01) rotate(-180)" xlink:href="#Degradado_sin_nombre_58"/>
    <linearGradient id="Degradado_sin_nombre_139-2" data-name="Degradado sin nombre 139" x1="251.4" y1="709.24" x2="82.65" y2="244.37" gradientTransform="translate(316 1214.01) rotate(-180)" xlink:href="#Degradado_sin_nombre_139"/>
  </defs>
  <path class="cls-2" d="M813.68,581.1c-.07,.35-.1,.53-.1,.53"/>
  <g>
    <path class="cls-5" d="M621.68,327.06L229.93,691.08c-.65,.6-.3,1.68,.58,1.79l4.89,.62c.94,.12,1.89-.17,2.61-.79l376.22-326.92c6.86-5.96,10.99-14.47,11.42-23.55l.62-13.03c.12-2.45-2.8-3.81-4.6-2.14Z"/>
    <g>
      <g>
        <path class="cls-4" d="M770.94,681.75c5.22-20.45,49.39-160.28,53.6-195.58,9.02-75.68-26.67-149.74-91.16-190.35l-1.6-1.01c48.14,30.33,62.77,74.36,37.62,113.27l-414.69,641.74c-7.05,10.91,6.52,22.63,26.21,22.63h0c146.6,0,273.15-60.96,303.33-146.12l182.53-514.97-95.83,270.37Z"/>
        <path class="cls-6" d="M824.54,486.18c-4.21,35.3-48.38,175.13-53.6,195.58l95.83-270.37c15.59-43.98-9.95-89.44-66.55-119.07-1.21-.63-2.43-1.26-3.68-1.89-2.61-1.3-5.27-2.63-7.96-3.98l-12.18-6.09c-4.94-2.47-9.99-4.99-15.11-7.55l-.49-.24c-2.43-1.21-4.88-2.44-7.34-3.67l-10.88-5.43c-1.53-.76-3.05-1.53-4.59-2.29l-17.36-8.67c-5.21-2.6-10.45-5.22-15.69-7.84l-8.27-4.13c-1.36-.68-2.72-1.36-4.08-2.04l-49.9-24.93c-2.59-1.3-5.17-2.58-7.72-3.86l-.35-.18c-2.49-1.24-4.95-2.47-7.39-3.69l-20.55-10.27c-2.28-1.14-4.53-2.27-6.75-3.37l-6.71-3.35c-4.18-2.09-8.22-4.11-12.1-6.05l-8.81-4.4c-1.28-.64-2.54-1.27-3.77-1.88l-3.92-1.96c-1.12-.56-2.22-1.11-3.29-1.64l-3-1.5c-3.15-1.57-6.09-3.04-8.8-4.4l-10.39-5.19c-.62-.31-1.21-.6-1.77-.89l-4.01-2c-.75-.37-1.39-.69-1.95-.98l-1.04-.52c-.17-.08-.32-.16-.46-.23l-.69-.35c-.14-.07-.24-.12-.24-.12-.08-.04-.16-.07-.24-.1-.54-.21-1.97-.7-3.7-.68-2.99,.08-5.54,1.6-5.81,3.34-.08,.89,.47,1.97,2.42,3.19l210.11,132.3s.03,.02,.05,.03l1.6,1.01c64.5,40.61,100.18,114.67,91.16,190.35Z"/>
      </g>
      <g>
        <path class="cls-3" d="M101.06,398.16c-5.22,20.45-49.39,160.28-53.6,195.58-9.02,75.68,26.67,149.74,91.16,190.35l1.6,1.01c-48.14-30.33-62.77-74.36-37.62-113.27L517.3,30.08c7.05-10.91-6.52-22.63-26.21-22.63h0c-146.6,0-273.15,60.96-303.33,146.12L5.23,668.53,101.06,398.16Z"/>
        <path class="cls-1" d="M47.46,593.73c4.21-35.3,48.38-175.13,53.6-195.58L5.23,668.53c-15.59,43.98,9.95,89.44,66.55,119.07,1.21,.63,2.43,1.26,3.68,1.89,2.61,1.3,5.27,2.63,7.96,3.98l12.18,6.09c4.94,2.47,9.99,4.99,15.11,7.55l.49,.24c2.43,1.21,4.88,2.44,7.34,3.67l10.88,5.43c1.53,.76,3.05,1.53,4.59,2.29l17.36,8.67c5.21,2.6,10.45,5.22,15.69,7.84l8.27,4.13c1.36,.68,2.72,1.36,4.08,2.04l49.9,24.93c2.59,1.3,5.17,2.58,7.72,3.86l.35,.18c2.49,1.24,4.95,2.47,7.39,3.69l20.55,10.27c2.28,1.14,4.53,2.27,6.75,3.37l6.71,3.35c4.18,2.09,8.22,4.11,12.1,6.05l8.81,4.4c1.28,.64,2.54,1.27,3.77,1.88l3.92,1.96c1.12,.56,2.22,1.11,3.29,1.64l3,1.5c3.15,1.57,6.09,3.04,8.8,4.4l10.39,5.19c.62,.31,1.21,.6,1.77,.89l4.01,2c.75,.37,1.39,.69,1.95,.98l1.04,.52c.17,.08,.32,.16,.46,.23l.69,.35c.14,.07,.24,.12,.24,.12,.08,.04,.16,.07,.24,.1,.54,.21,1.97,.7,3.7,.68,2.99-.08,5.54-1.6,5.81-3.34,.08-.89-.47-1.97-2.42-3.19l-210.11-132.3s-.03-.02-.05-.03l-1.6-1.01c-64.5-40.61-100.18-114.67-91.16-190.35Z"/>
      </g>
    </g>
  </g>
</svg>