<svg xmlns="http://www.w3.org/2000/svg" version="1.1" xmlns:xlink="http://www.w3.org/1999/xlink" xmlns:svgjs="http://svgjs.com/svgjs" width="1920" height="1080" preserveAspectRatio="none" viewBox="0 0 1920 1080"><g mask="url(&quot;#SvgjsMask1052&quot;)" fill="none"><rect width="1920" height="1080" x="0" y="0" fill="rgba(67, 56, 202, 1)"></rect><path d="M496 35L495 437" stroke-width="6" stroke="url(#SvgjsLinearGradient1053)" stroke-linecap="round" class="Down"></path><path d="M319 46L318 -271" stroke-width="10" stroke="url(#SvgjsLinearGradient1054)" stroke-linecap="round" class="Down"></path><path d="M1703 835L1702 1301" stroke-width="6" stroke="url(#SvgjsLinearGradient1055)" stroke-linecap="round" class="Up"></path><path d="M928 653L927 344" stroke-width="6" stroke="url(#SvgjsLinearGradient1055)" stroke-linecap="round" class="Up"></path><path d="M1391 452L1390 818" stroke-width="10" stroke="url(#SvgjsLinearGradient1055)" stroke-linecap="round" class="Up"></path><path d="M293 908L292 1702" stroke-width="8" stroke="url(#SvgjsLinearGradient1055)" stroke-linecap="round" class="Up"></path><path d="M1652 1071L1651 288" stroke-width="6" stroke="url(#SvgjsLinearGradient1053)" stroke-linecap="round" class="Down"></path><path d="M423 1013L422 1645" stroke-width="10" stroke="url(#SvgjsLinearGradient1053)" stroke-linecap="round" class="Down"></path><path d="M1170 60L1169 -343" stroke-width="10" stroke="url(#SvgjsLinearGradient1056)" stroke-linecap="round" class="Up"></path><path d="M436 1014L435 648" stroke-width="10" stroke="url(#SvgjsLinearGradient1056)" stroke-linecap="round" class="Up"></path><path d="M1314 895L1313 439" stroke-width="10" stroke="url(#SvgjsLinearGradient1053)" stroke-linecap="round" class="Down"></path><path d="M1379 380L1378 -243" stroke-width="6" stroke="url(#SvgjsLinearGradient1053)" stroke-linecap="round" class="Down"></path><path d="M255 146L254 687" stroke-width="10" stroke="url(#SvgjsLinearGradient1056)" stroke-linecap="round" class="Up"></path><path d="M521 563L520 125" stroke-width="6" stroke="url(#SvgjsLinearGradient1055)" stroke-linecap="round" class="Up"></path><path d="M1686 163L1685 -404" stroke-width="10" stroke="url(#SvgjsLinearGradient1055)" stroke-linecap="round" class="Up"></path><path d="M1432 1028L1431 665" stroke-width="8" stroke="url(#SvgjsLinearGradient1054)" stroke-linecap="round" class="Down"></path><path d="M337 737L336 1198" stroke-width="8" stroke="url(#SvgjsLinearGradient1054)" stroke-linecap="round" class="Down"></path><path d="M1046 428L1045 -202" stroke-width="10" stroke="url(#SvgjsLinearGradient1055)" stroke-linecap="round" class="Up"></path><path d="M255 999L254 1409" stroke-width="8" stroke="url(#SvgjsLinearGradient1055)" stroke-linecap="round" class="Up"></path><path d="M1010 712L1009 300" stroke-width="10" stroke="url(#SvgjsLinearGradient1056)" stroke-linecap="round" class="Up"></path><path d="M1270 1025L1269 498" stroke-width="8" stroke="url(#SvgjsLinearGradient1054)" stroke-linecap="round" class="Down"></path><path d="M929 843L928 1158" stroke-width="10" stroke="url(#SvgjsLinearGradient1053)" stroke-linecap="round" class="Down"></path><path d="M1772 431L1771 1185" stroke-width="6" stroke="url(#SvgjsLinearGradient1054)" stroke-linecap="round" class="Down"></path><path d="M1423 582L1422 186" stroke-width="10" stroke="url(#SvgjsLinearGradient1053)" stroke-linecap="round" class="Down"></path><path d="M414 409L413 863" stroke-width="6" stroke="url(#SvgjsLinearGradient1056)" stroke-linecap="round" class="Up"></path><path d="M1111 199L1110 813" stroke-width="6" stroke="url(#SvgjsLinearGradient1055)" stroke-linecap="round" class="Up"></path><path d="M825 783L824 211" stroke-width="8" stroke="url(#SvgjsLinearGradient1053)" stroke-linecap="round" class="Down"></path><path d="M818 279L817 -51" stroke-width="10" stroke="url(#SvgjsLinearGradient1056)" stroke-linecap="round" class="Up"></path><path d="M1249 434L1248 -365" stroke-width="10" stroke="url(#SvgjsLinearGradient1054)" stroke-linecap="round" class="Down"></path><path d="M273 343L272 875" stroke-width="10" stroke="url(#SvgjsLinearGradient1053)" stroke-linecap="round" class="Down"></path><path d="M1846 512L1845 -273" stroke-width="10" stroke="url(#SvgjsLinearGradient1053)" stroke-linecap="round" class="Down"></path><path d="M599 795L598 95" stroke-width="10" stroke="url(#SvgjsLinearGradient1053)" stroke-linecap="round" class="Down"></path><path d="M1527 727L1526 1180" stroke-width="6" stroke="url(#SvgjsLinearGradient1054)" stroke-linecap="round" class="Down"></path><path d="M1162 567L1161 1018" stroke-width="6" stroke="url(#SvgjsLinearGradient1056)" stroke-linecap="round" class="Up"></path><path d="M876 1075L875 336" stroke-width="8" stroke="url(#SvgjsLinearGradient1054)" stroke-linecap="round" class="Down"></path><path d="M324 694L323 1441" stroke-width="6" stroke="url(#SvgjsLinearGradient1056)" stroke-linecap="round" class="Up"></path><path d="M274 1017L273 1424" stroke-width="6" stroke="url(#SvgjsLinearGradient1056)" stroke-linecap="round" class="Up"></path><path d="M687 618L686 1325" stroke-width="8" stroke="url(#SvgjsLinearGradient1054)" stroke-linecap="round" class="Down"></path><path d="M8 713L7 1217" stroke-width="6" stroke="url(#SvgjsLinearGradient1055)" stroke-linecap="round" class="Up"></path><path d="M933 117L932 625" stroke-width="10" stroke="url(#SvgjsLinearGradient1056)" stroke-linecap="round" class="Up"></path><path d="M1773 781L1772 1435" stroke-width="8" stroke="url(#SvgjsLinearGradient1056)" stroke-linecap="round" class="Up"></path><path d="M48 1045L47 1457" stroke-width="6" stroke="url(#SvgjsLinearGradient1054)" stroke-linecap="round" class="Down"></path><path d="M102 808L101 1383" stroke-width="6" stroke="url(#SvgjsLinearGradient1056)" stroke-linecap="round" class="Up"></path><path d="M1130 699L1129 391" stroke-width="10" stroke="url(#SvgjsLinearGradient1056)" stroke-linecap="round" class="Up"></path><path d="M497 483L496 181" stroke-width="6" stroke="url(#SvgjsLinearGradient1056)" stroke-linecap="round" class="Up"></path><path d="M1750 317L1749 -121" stroke-width="6" stroke="url(#SvgjsLinearGradient1055)" stroke-linecap="round" class="Up"></path><path d="M1528 244L1527 -255" stroke-width="6" stroke="url(#SvgjsLinearGradient1053)" stroke-linecap="round" class="Down"></path><path d="M127 373L126 820" stroke-width="6" stroke="url(#SvgjsLinearGradient1055)" stroke-linecap="round" class="Up"></path></g><defs><mask id="SvgjsMask1052"><rect width="1920" height="1080" fill="#ffffff"></rect></mask><linearGradient x1="0%" y1="0%" x2="0%" y2="100%" id="SvgjsLinearGradient1053"><stop stop-color="rgba(66, 68, 90, 0)" offset="0"></stop><stop stop-color="rgba(66, 68, 90, 1)" offset="1"></stop></linearGradient><linearGradient x1="0%" y1="0%" x2="0%" y2="100%" id="SvgjsLinearGradient1054"><stop stop-color="rgba(255, 255, 255, 0)" offset="0"></stop><stop stop-color="rgba(255, 255, 255, 1)" offset="1"></stop></linearGradient><linearGradient x1="0%" y1="100%" x2="0%" y2="0%" id="SvgjsLinearGradient1055"><stop stop-color="rgba(66, 68, 90, 0)" offset="0"></stop><stop stop-color="rgba(66, 68, 90, 1)" offset="1"></stop></linearGradient><linearGradient x1="0%" y1="100%" x2="0%" y2="0%" id="SvgjsLinearGradient1056"><stop stop-color="rgba(255, 255, 255, 0)" offset="0"></stop><stop stop-color="rgba(255, 255, 255, 1)" offset="1"></stop></linearGradient></defs></svg>